<svg width="20" height="24" viewBox="0 0 20 24" fill="none" xmlns="http://www.w3.org/2000/svg">
<path d="M12.1296 0.448351C8.04149 0.878403 4.55445 3.88358 3.52854 7.86804C2.25393 12.811 4.87051 17.9043 9.63217 19.7437C10.6166 20.1219 11.9793 20.3914 12.9327 20.3914C13.3006 20.3914 13.3835 20.3758 13.4715 20.2877C13.627 20.1323 13.627 19.8577 13.4715 19.6971C13.3938 19.6193 13.2591 19.5882 12.8135 19.552C10.969 19.4069 9.36792 18.8888 8.05704 18.0183C7.44564 17.6142 7.26429 17.4691 6.72025 16.9302C5.00522 15.2463 4.08813 12.9665 4.08813 10.3862C4.08813 7.21519 5.51818 4.46389 8.03113 2.78514C9.32129 1.93022 11.0467 1.37063 12.8239 1.24628C13.2954 1.21001 13.3524 1.19447 13.4819 1.05975C13.6684 0.878403 13.6633 0.733326 13.4767 0.541615C13.3316 0.401718 13.3006 0.391356 12.943 0.396538C12.7358 0.401718 12.3679 0.427626 12.1296 0.448351Z" fill="#18181B"/>
<path d="M12.202 3.68625C10.6787 3.91941 9.38334 4.56189 8.3678 5.59298C7.42479 6.54635 6.86521 7.58262 6.56987 8.95568C6.47661 9.38573 6.45588 9.65516 6.45588 10.3909C6.4507 11.3598 6.50769 11.7588 6.76676 12.5826C7.25899 14.1267 8.30044 15.4324 9.68904 16.2458C10.6217 16.7899 11.9533 17.1629 13.0466 17.1837C13.4507 17.194 13.5958 17.0852 13.5958 16.7847C13.5958 16.5153 13.4507 16.4168 13.0155 16.3805C11.9222 16.2873 11.1087 16.0593 10.3056 15.6241C8.27971 14.5101 7.02583 12.1888 7.25381 9.97122C7.48697 7.68107 8.59578 6.00749 10.4922 5.07485C12.3782 4.14739 14.6683 4.26656 16.4662 5.37537C16.9844 5.69661 17.7512 6.42718 18.0776 6.91423C18.632 7.73288 19.0155 8.8106 19.1243 9.84687C19.1968 10.536 19.2072 10.5826 19.3263 10.7018C19.4714 10.8469 19.7149 10.8365 19.8704 10.6759C19.9844 10.5671 19.9999 10.5049 19.9999 10.1992C19.9999 9.48417 19.746 8.35982 19.4248 7.65516C18.6165 5.86759 17.1709 4.55671 15.3315 3.94531C14.3471 3.61371 13.2486 3.52563 12.202 3.68625Z" fill="#18181B"/>
<path d="M12.7254 6.82088C11.9171 6.92968 11.2746 7.25093 10.6425 7.88305C10.2902 8.2302 10.1814 8.38046 9.98446 8.78979C9.51814 9.7587 9.47151 10.6603 9.83939 11.7069C10.114 12.4945 10.7254 13.1836 11.4871 13.567C12.1451 13.8934 12.5959 13.9867 13.3886 13.9504C13.9067 13.9297 14.0881 13.8986 14.4404 13.7742C15.0415 13.5566 15.399 13.3235 15.8238 12.8727C17.0466 11.5774 17.1192 9.49445 15.9896 8.11621C15.2073 7.16285 13.943 6.66025 12.7254 6.82088ZM13.8808 7.72243C15.4249 8.09031 16.3368 9.74316 15.829 11.2561C15.2798 12.8882 13.5026 13.6292 11.9586 12.8779C10.285 12.0644 9.90156 9.76388 11.2176 8.44782C11.8912 7.76906 12.9067 7.49445 13.8808 7.72243Z" fill="#18181B"/>
<path d="M0.233161 10.0394C0.0362694 10.1431 0 10.2467 0 10.6768C0 12.3555 0.518135 14.4902 1.32124 16.1327C2.02591 17.5731 2.75648 18.599 3.88083 19.7182C6.25907 22.0861 9.27979 23.428 12.601 23.5835C13.285 23.6198 13.2953 23.6198 13.4404 23.4902C13.6425 23.3141 13.6477 23.0654 13.4508 22.8944C13.3368 22.7959 13.2487 22.7752 12.9896 22.7752C10.4352 22.7752 7.50777 21.7027 5.41451 20.0032C2.67358 17.7752 1.00518 14.485 0.84456 10.9876C0.813472 10.2882 0.80829 10.2571 0.668394 10.1224C0.518135 9.96691 0.398964 9.94619 0.233161 10.0394Z" fill="#18181B"/>
</svg>
