<?xml version="1.0" standalone="no"?>
<!DOCTYPE svg PUBLIC "-//W3C//DTD SVG 20010904//EN"
 "http://www.w3.org/TR/2001/REC-SVG-20010904/DTD/svg10.dtd">
<svg version="1.0" xmlns="http://www.w3.org/2000/svg"
 width="512.000000pt" height="512.000000pt" viewBox="0 0 512.000000 512.000000"
 preserveAspectRatio="xMidYMid meet">
<metadata>
Created by potrace 1.14, written by Peter Selinger 2001-2017
</metadata>
<g transform="translate(0.000000,512.000000) scale(0.100000,-0.100000)"
fill="#000000" stroke="none">
<path d="M2925 4463 c-171 -15 -381 -75 -550 -158 -475 -231 -802 -655 -907
-1177 -33 -163 -33 -453 0 -616 102 -508 413 -925 864 -1157 208 -107 434
-170 660 -182 128 -7 158 5 158 61 0 52 -23 64 -141 76 -434 44 -744 183
-1005 452 -216 223 -342 471 -394 773 -27 160 -28 408 0 568 38 224 135 454
264 627 80 107 238 261 336 327 207 139 474 235 735 262 167 18 172 20 195 48
26 34 25 44 -8 76 -25 24 -35 27 -98 25 -38 -1 -87 -3 -109 -5z"/>
<path d="M2980 3935 c-8 -2 -49 -9 -90 -15 -222 -36 -434 -145 -595 -305 -238
-237 -347 -554 -315 -916 39 -447 330 -808 758 -943 168 -53 364 -73 396 -40
20 19 21 78 2 93 -8 7 -73 21 -145 31 -209 30 -347 84 -491 191 -221 163 -367
424 -395 705 -13 132 23 339 85 487 179 430 675 664 1152 543 179 -45 308
-118 442 -250 157 -154 244 -341 281 -606 8 -61 20 -120 25 -131 25 -45 103
-27 116 27 10 41 -4 170 -30 279 -41 167 -92 272 -202 420 -199 268 -549 438
-889 434 -49 -1 -97 -3 -105 -4z"/>
<path d="M2925 3391 c-91 -26 -162 -69 -246 -148 -194 -185 -238 -453 -117
-703 47 -98 153 -200 260 -250 230 -107 506 -68 676 98 148 144 212 356 168
560 -45 213 -218 390 -433 446 -81 21 -230 20 -308 -3z m308 -141 c73 -23 167
-87 210 -143 15 -21 42 -67 60 -105 41 -88 50 -222 19 -318 -68 -215 -280
-350 -499 -316 -302 47 -477 369 -350 646 30 65 113 157 175 193 109 64 262
81 385 43z"/>
<path d="M935 2865 c-22 -22 -25 -32 -25 -104 0 -44 7 -133 15 -198 49 -378
197 -748 418 -1046 77 -104 276 -308 387 -397 334 -266 733 -428 1154 -469
168 -17 218 -15 244 9 28 26 28 71 2 95 -17 16 -45 20 -156 26 -564 32 -1112
312 -1468 753 -274 338 -424 726 -455 1176 -9 128 -11 136 -36 158 -33 28 -50
28 -80 -3z"/>
</g>
</svg>
